<?xml version="1.0" encoding="utf-8"?>
<!-- Generator: Adobe Illustrator 22.0.0, SVG Export Plug-In . SVG Version: 6.00 Build 0)  -->
<svg version="1.1" id="Слой_1" xmlns="http://www.w3.org/2000/svg" xmlns:xlink="http://www.w3.org/1999/xlink" x="0px" y="0px"
	 viewBox="0 0 95 79" style="enable-background:new 0 0 95 79;" xml:space="preserve">
<style type="text/css">
	.st0{fill:url(#SVGID_1_);}
	.st1{fill:url(#SVGID_2_);}
	.st2{fill:url(#SVGID_3_);}
	.st3{fill:#E3376E;}
	.st4{enable-background:new    ;}
	.st5{fill:#000002;}
</style>
<linearGradient id="SVGID_1_" gradientUnits="userSpaceOnUse" x1="-284.5" y1="162.1111" x2="-284.5" y2="163.1111" gradientTransform="matrix(58 0 0 -45 16530 7357)">
	<stop  offset="0" style="stop-color:#C9527A"/>
	<stop  offset="1" style="stop-color:#F7DEEA"/>
</linearGradient>
<path class="st0" d="M16,62H0c0,0,11.8-4.3,18-11s9.7-18.6,16-25c7.5-7.6,24-9,24-9v1c0,0-17.8,2-23,10s-6.1,16.9-9,22
	C22,57.2,16,62,16,62z"/>
<linearGradient id="SVGID_2_" gradientUnits="userSpaceOnUse" x1="-284.5192" y1="162.3891" x2="-285.5192" y2="162.3891" gradientTransform="matrix(64.7208 0 0 -40.2665 18509.0352 6566.7065)">
	<stop  offset="0" style="stop-color:#CC2B5F"/>
	<stop  offset="1" style="stop-color:#EF9CBA"/>
</linearGradient>
<path class="st1" d="M34,16l-4-2c0,0,56-12.7,64-2c7.5,10-46,36-46,36l1-3c0,0,39.2-21.7,36-30C81.5,5.9,34,16,34,16z"/>
<linearGradient id="SVGID_3_" gradientUnits="userSpaceOnUse" x1="-282.4371" y1="162.9102" x2="-282.4371" y2="163.9102" gradientTransform="matrix(41.0596 0 0 -77.9999 11653.2246 12785.8906)">
	<stop  offset="0" style="stop-color:#F5D0E0"/>
	<stop  offset="1" style="stop-color:#C42659"/>
</linearGradient>
<path class="st2" d="M77,4c0,0-21.8-2.5-24-3s-3.5,1.3-4,4S36.5,74.8,36,77s2.3,2.8,3,0c1-4,16-71.2,18-72C58.3,4.5,77,4,77,4z"/>
<path class="st3" d="M48,10.7l-1,2.9l7.3-0.9L55,9.9L48,10.7z"/>
<g class="st4">
	<path class="st5" d="M27.6,55.6c0.2-0.5,0.3-0.9,0.4-1.2c0.1-0.3,0.3-0.5,0.5-0.8c0.2-0.2,0.4-0.4,0.7-0.5S29.8,53,30,53
		c0.2,0,0.5,0,0.7,0.1l0,0.1c-0.1,0.3-0.2,0.5-0.2,0.7l0,0h-0.1l0,0c-0.1-0.3-0.3-0.5-0.5-0.5c-0.3,0-0.5,0.2-0.7,0.5
		c-0.2,0.3-0.3,0.9-0.5,1.7c0.8,0,1.4,0.1,1.8,0.3c0.4,0.2,0.7,0.4,0.8,0.8c0.2,0.4,0.3,0.8,0.3,1.2c0,0.8-0.3,1.6-0.9,2.3
		c-0.6,0.7-1.6,1.1-2.9,1.1c-0.1,0.5-0.3,0.9-0.4,1.2c-0.2,0.3-0.4,0.6-0.8,0.9s-0.6,0.6-0.9,0.7c-0.2,0.1-0.5,0.2-0.6,0.2
		c-0.2,0-0.4-0.1-0.6-0.2c0-0.2,0-0.3,0-0.4c0-0.1,0-0.3,0-0.8l0,0h0.1l0,0c0.1,0.3,0.2,0.4,0.3,0.5s0.3,0.1,0.5,0.1
		c0.2,0,0.3,0,0.4-0.1s0.2-0.2,0.4-0.4c0.1-0.2,0.2-0.4,0.3-0.7c0.1-0.3,0.1-0.6,0.2-1.1c-0.9-0.1-1.6-0.3-2-0.7
		c-0.4-0.4-0.6-1-0.6-1.7c0-0.4,0.1-0.8,0.2-1.1c0.1-0.3,0.3-0.7,0.6-1s0.6-0.5,0.9-0.7c0.3-0.2,0.6-0.3,0.9-0.3
		C26.8,55.7,27.2,55.6,27.6,55.6z M27.6,56c-0.4,0-0.9,0.1-1.2,0.4c-0.4,0.3-0.6,0.7-0.8,1.1s-0.3,0.9-0.3,1.3
		c0,0.6,0.1,1.1,0.4,1.4s0.6,0.6,1,0.7c0,0,0-0.3,0.1-0.8c0.1-0.8,0.2-1.7,0.4-2.5C27.4,56.8,27.5,56.2,27.6,56z M27.8,61
		c0.3,0,0.6-0.1,0.8-0.2s0.5-0.3,0.7-0.6c0.2-0.3,0.4-0.6,0.6-1.1c0.2-0.4,0.2-0.9,0.2-1.4c0-0.6-0.1-1-0.4-1.3
		c-0.2-0.3-0.6-0.5-1.2-0.5c-0.1,0.5-0.2,1.3-0.4,2.4C28.1,59.4,28,60.2,27.8,61z"/>
	<path class="st5" d="M32,59.7l0.2-0.1l0.1,0v0.1c0,0.2,0,0.3,0.1,0.4c0.1,0.1,0.2,0.1,0.3,0.1c0.1,0,0.2,0,0.3-0.1s0.2-0.1,0.3-0.2
		c0.1-0.1,0.3-0.4,0.6-0.9c0.3-0.5,0.5-0.9,0.6-1.1c0.1-0.2,0.3-0.7,0.6-1.2c-0.1-0.2-0.1-0.4-0.2-0.4c-0.1-0.1-0.2-0.1-0.3-0.1
		c-0.1,0-0.4,0.1-0.8,0.2l-0.1,0l0-0.2l0.1-0.1c0.9-0.3,1.5-0.5,1.9-0.5c0.2,0,0.3,0,0.4,0.1c0.1,0.1,0.1,0.2,0.1,0.4l0.3,1.9
		c0.1,0.7,0.2,1.2,0.3,1.6s0.2,0.6,0.2,0.7c0,0.1,0.1,0.1,0.2,0.2c0.1,0,0.1,0.1,0.2,0.1c0.1,0,0.1,0,0.2,0c0.1,0,0.2-0.1,0.3-0.2
		l0.1,0l0.1,0.2l0,0.1c-0.6,0.5-1.2,0.8-1.6,0.8c-0.1,0-0.3,0-0.4-0.1s-0.2-0.2-0.2-0.3c-0.1-0.1-0.1-0.4-0.2-0.7s-0.1-0.7-0.2-1.2
		c-0.1-0.5-0.2-1-0.3-1.7l-0.1,0c-0.2,0.3-0.4,0.8-0.6,1.4c-0.5,1.1-0.9,1.9-1.1,2.2c-0.2,0.3-0.5,0.4-0.8,0.4c-0.1,0-0.3,0-0.3-0.1
		C32.1,61.2,32,61.1,32,61L32,59.7L32,59.7z"/>
	<path class="st5" d="M38.9,59.5c0-0.3,0.1-0.8,0.2-1.3c0.1-0.5,0.3-1,0.6-1.3s0.7-0.7,1.2-0.9c0.5-0.3,1-0.4,1.5-0.4
		c0.5,0,1,0.2,1.3,0.5c0.3,0.3,0.5,0.8,0.5,1.4c0,0.6-0.1,1.1-0.3,1.7s-0.5,1-0.8,1.3c-0.3,0.3-0.7,0.5-1.1,0.7s-0.8,0.3-1.3,0.3
		c-0.5,0-0.8-0.1-1.1-0.3c-0.3-0.2-0.4-0.4-0.5-0.7S38.9,59.8,38.9,59.5z M40.2,59.5c0,0.5,0.1,0.8,0.3,1c0.2,0.2,0.4,0.3,0.7,0.3
		c0.2,0,0.4-0.1,0.6-0.2s0.3-0.3,0.5-0.7s0.3-0.7,0.4-1.2c0.1-0.5,0.1-0.9,0.1-1.3c0-0.5-0.1-0.8-0.3-1c-0.2-0.2-0.4-0.3-0.7-0.3
		c-0.3,0-0.5,0.1-0.8,0.3s-0.4,0.7-0.6,1.3C40.3,58.4,40.2,59,40.2,59.5z"/>
	<path class="st5" d="M45,57.1L45,57.1c0.3-0.3,0.6-0.6,0.9-0.8s0.6-0.4,0.7-0.5s0.3-0.1,0.5-0.1c0.2,0,0.4,0.1,0.4,0.4
		c0,0.1,0,0.4-0.1,0.7s-0.2,0.8-0.3,1.4c0.3-0.5,0.6-0.9,0.8-1.2c0.2-0.3,0.6-0.6,1-0.9c0.4-0.3,0.8-0.4,1.1-0.4
		c0.1,0,0.3,0,0.4,0.1s0.2,0.3,0.2,0.5c0.1,0.2,0.1,0.5,0.1,0.7c0,0.5-0.1,1-0.3,1.5c-0.2,0.6-0.4,1-0.6,1.2
		c-0.2,0.2-0.4,0.5-0.8,0.8c-0.4,0.3-0.7,0.5-1,0.6c-0.3,0.1-0.6,0.2-0.9,0.2c-0.2,0-0.5,0-0.7-0.1c-0.1,0.4-0.2,0.8-0.3,1.3
		s-0.2,0.9-0.2,1c0,0.1,0,0.3,0,0.5c-0.1,0-0.3,0-0.7,0.1c-0.4,0.1-0.6,0.1-0.6,0.1l-0.1-0.1l0.5-1.9c0.2-0.7,0.4-1.7,0.6-2.9
		c0.3-1.2,0.4-2,0.4-2.2c0-0.1,0-0.1,0-0.2c0-0.1,0-0.1-0.1-0.2s-0.1-0.1-0.1-0.1s-0.1,0-0.2,0.1c-0.1,0.1-0.3,0.2-0.6,0.4l-0.1,0
		L45,57.1z M46.6,60.4c0.4,0.2,0.7,0.3,1.1,0.3c0.2,0,0.3,0,0.5-0.1c0.1-0.1,0.3-0.2,0.4-0.4c0.1-0.2,0.3-0.5,0.4-0.9
		c0.1-0.4,0.2-0.7,0.3-1.1c0.1-0.3,0.1-0.7,0.1-1.1c0-0.2,0-0.4-0.1-0.5c0-0.1-0.1-0.1-0.2-0.1s-0.3,0.1-0.5,0.2
		c-0.2,0.1-0.4,0.3-0.7,0.6c-0.2,0.3-0.5,0.6-0.6,0.9c-0.2,0.4-0.3,0.6-0.4,0.9C46.9,59.3,46.8,59.8,46.6,60.4z"/>
	<path class="st5" d="M51.4,56.6L51.4,56.6c0.7-0.4,1.2-0.7,1.5-0.9c0.3-0.2,0.6-0.2,0.7-0.2c0.2,0,0.3,0.1,0.3,0.3
		c0,0.1,0,0.4,0,0.7c0,0.3-0.1,0.9-0.1,1.5c0,0.7,0,1.1,0,1.3c0,0.2,0.1,0.4,0.2,0.4c0.1,0,0.3-0.1,0.4-0.2c0.2-0.1,0.3-0.3,0.5-0.6
		s0.3-0.5,0.5-0.8s0.3-0.6,0.4-1.1c0.1-0.5,0.2-0.9,0.3-1.4c0.5-0.1,1-0.1,1.3-0.2l0.1,0.1c-0.1,0.3-0.2,0.6-0.3,0.9
		s-0.2,0.8-0.3,1.5c-0.3,1.6-0.6,2.6-0.7,3.2c-0.2,0.6-0.4,1.2-0.7,1.7c-0.3,0.5-0.7,0.9-1,1.1s-0.8,0.3-1.2,0.3s-0.7-0.1-1-0.3V64
		l0.3-0.5c0,0,0.1-0.1,0.2-0.3l0.1,0c0.1,0.3,0.2,0.4,0.3,0.5c0.1,0.1,0.3,0.2,0.4,0.2c0.4,0,0.8-0.3,1-1c0.3-0.7,0.6-2,0.9-4.1
		l-0.1,0c-0.2,0.3-0.4,0.7-0.8,1.2c-0.4,0.5-0.7,0.9-0.8,1s-0.4,0.2-0.6,0.2c-0.2,0-0.3-0.1-0.4-0.2c-0.1-0.2-0.2-0.4-0.2-0.8l0-0.9
		c0-0.3,0-0.7,0-1.1l0-0.7c0-0.4,0-0.6-0.1-0.7s-0.1-0.2-0.2-0.2c-0.1,0-0.2,0-0.2,0c-0.1,0-0.3,0.1-0.5,0.2l0,0L51.4,56.6z"/>
	<path class="st5" d="M62.1,59.8l0.1,0.2l0,0.1c-0.6,0.5-1.2,0.8-1.6,1s-0.8,0.3-1.2,0.3c-0.3,0-0.6-0.1-0.8-0.2s-0.4-0.3-0.5-0.6
		c-0.1-0.2-0.2-0.5-0.2-0.8c0-0.3,0-0.7,0.1-1.1c0.1-0.4,0.2-0.7,0.3-1c0.1-0.3,0.2-0.5,0.3-0.6c0.1-0.1,0.2-0.3,0.4-0.4
		c0.1-0.1,0.4-0.3,0.8-0.5c0.3-0.2,0.5-0.3,0.6-0.3c0.1-0.1,0.2-0.1,0.4-0.1c0.2,0,0.3-0.1,0.5-0.1c0.4,0,0.8,0.1,1.2,0.3l0,0.1
		c-0.1,0.1-0.1,0.4-0.2,0.7c-0.1,0.3-0.1,0.6-0.2,0.8l-0.1,0.1h-0.3l0-0.1c0-0.2,0-0.4,0-0.6c0,0,0-0.1,0-0.2
		c-0.3-0.3-0.7-0.4-1-0.4c-0.3,0-0.5,0.1-0.6,0.1c-0.2,0.1-0.3,0.2-0.4,0.4c-0.1,0.2-0.2,0.6-0.3,1.1c-0.1,0.5-0.2,1-0.2,1.4
		c0,0.3,0.1,0.6,0.2,0.8c0.2,0.2,0.4,0.3,0.6,0.3c0.2,0,0.5,0,0.7-0.1C61.2,60.4,61.6,60.1,62.1,59.8L62.1,59.8z"/>
	<path class="st5" d="M63.1,57.1L63,56.9l0-0.1c0.5-0.4,1-0.7,1.3-0.9c0.3-0.2,0.6-0.3,0.8-0.3c0.2,0,0.4,0.1,0.4,0.4
		c0,0.1,0,0.3-0.1,0.5c0,0.2-0.1,0.6-0.3,1l-0.5,1.9c-0.1,0.3-0.1,0.4-0.1,0.6c0,0.2,0.1,0.2,0.2,0.2c0.1,0,0.2-0.1,0.4-0.2
		c0.2-0.1,0.4-0.4,0.7-0.8c0.2-0.3,0.5-0.7,0.7-1.1c0.2-0.4,0.4-0.9,0.5-1.5c0.1-0.3,0.1-0.6,0.2-0.9c0.4,0,0.8-0.1,1.2-0.2l0.1,0.1
		c-0.2,0.7-0.5,1.6-0.7,2.5s-0.4,1.6-0.4,1.8c0,0.1,0.1,0.2,0.2,0.2c0.1,0,0.1,0,0.2-0.1c0.1,0,0.2-0.1,0.3-0.2
		c0.1-0.1,0.2-0.2,0.3-0.2h0.1l0.1,0.2l0,0.1c-0.8,0.6-1.3,0.9-1.5,1s-0.4,0.2-0.5,0.2c-0.1,0-0.2,0-0.3-0.1
		c-0.1-0.1-0.1-0.2-0.1-0.3c0-0.2,0.1-0.7,0.3-1.4l0.2-0.9c-0.4,0.7-0.8,1.3-1.5,1.9c-0.6,0.6-1.1,0.9-1.5,0.9
		c-0.2,0-0.3-0.1-0.4-0.2s-0.2-0.3-0.2-0.5c0-0.1,0-0.3,0-0.5c0-0.2,0.1-0.5,0.3-1c0.3-1.2,0.5-2,0.5-2.3c0-0.2-0.1-0.2-0.2-0.2
		c0,0-0.1,0-0.2,0C63.7,56.8,63.5,56.9,63.1,57.1L63.1,57.1z"/>
	<path class="st5" d="M73.2,57.9l0.4-2c0.4-0.1,0.9-0.2,1.4-0.3l0.1,0.1c-0.2,0.6-0.4,1.2-0.5,2c-0.2,0.8-0.3,1.5-0.3,2
		c0,0.3,0,0.5,0.1,0.6c0.1,0.1,0.2,0.2,0.4,0.2c0.2,0,0.4-0.1,0.7-0.3l0,0v0.2l0,0.1c-0.5,0.5-1.1,0.8-1.6,0.8c-0.3,0-0.5,0-0.6-0.1
		c-0.1-0.1-0.2-0.2-0.3-0.4c-0.1-0.2-0.1-0.3-0.1-0.5c0-0.5,0.1-1.1,0.2-2c-0.3,0-0.5,0-0.8,0c-0.3,0-0.6,0-0.9,0l-0.2,1.1L71,61.1
		c-0.3,0-0.7,0.1-1.2,0.3l-0.1-0.1c0.1-0.6,0.2-1.1,0.3-1.7c0.1-0.5,0.2-1.1,0.2-1.7c0.1-0.6,0.1-0.9,0.1-1c0-0.2-0.1-0.3-0.2-0.3
		c-0.1,0-0.1,0-0.2,0.1c-0.1,0-0.3,0.1-0.6,0.3h-0.1l-0.1-0.2l0-0.1c0.5-0.4,1-0.7,1.3-0.9c0.3-0.2,0.6-0.2,0.8-0.2
		c0.1,0,0.2,0,0.3,0.1c0.1,0.1,0.1,0.2,0.1,0.3c0,0.2,0,0.5-0.1,0.9l-0.2,1c0.4,0,0.8,0,1,0C72.7,57.9,73,57.9,73.2,57.9z"/>
</g>
</svg>
